<?xml version="1.0" encoding="UTF-8" standalone="no"?>
<!DOCTYPE svg PUBLIC "-//W3C//DTD SVG 1.1//EN" "http://www.w3.org/Graphics/SVG/1.1/DTD/svg11.dtd">
<svg version="1.1" xmlns="http://www.w3.org/2000/svg" xmlns:xlink="http://www.w3.org/1999/xlink" preserveAspectRatio="xMidYMid meet" viewBox="0 0 500 500" width="500" height="500"><defs><path d="M453.55 123.08L452.22 468.14L45.55 468.14L45.55 123.08" id="b6fXthtcyx"></path><path d="M45.55 124.81C77.55 88.81 132.22 34.81 250 30.81C328.52 28.14 396.37 59.47 453.55 124.81" id="fa5pU9FuQ"></path><path d="M79.06 91.42L77.34 99.48L75.61 107.54L72.15 115.03L71 123.67L70.43 131.73L66.97 139.8L63.51 147.86L58.91 154.77L58.91 162.83L57.75 170.9L56.03 178.96L54.3 187.02L54.3 195.09L54.3 203.15L54.3 211.21L53.15 219.28L50.84 228.49L49.69 236.56L46.81 244.62" id="f3Vz7zuKrt"></path><path d="M159.12 48.79L158.35 58.87L157.97 68.95" id="a1p5ICZHXx"></path><path d="M157.97 63.77L157.39 71.83L156.82 79.9L154.52 87.38" id="m1xfpI58vm"></path><path d="M153.94 84.5L151.64 92.04L150.48 100.16L150.48 108.28L150.48 118.14L151.06 127.99L151.64 136.11L150.48 146.55L148.76 154.67L148.18 163.37L148.18 172.06L148.18 180.18L147.6 188.3L146.45 197.58L144.72 206.28L142.42 214.97L140.69 223.67L140.69 233.53L140.69 241.65L140.69 250.35L140.12 259.62L140.12 270.06L140.12 279.92L140.12 288.04L141.84 296.74L144.15 304.85L145.3 313.55L145.88 321.67L153.94 321.67L157.39 329.21L165.46 330.95L171.22 336.75L178.71 339.65L186.77 340.81" id="b91KQGEYqf"></path><path d="M331.33 41.31L334.21 49.37L334.21 58.59L334.21 67.23L335.94 75.86L338.82 83.35L341.13 91.42L341.13 101.21L343.43 110.42L344.58 118.49L345.73 127.13L348.04 135.19L349.19 143.83L350.34 152.47L350.34 160.53L351.49 168.59L353.22 176.66L353.8 184.72" id="b1gdex9yhh"></path><path d="M353.22 184.14L355.52 193.36L356.1 202L356.1 210.06L356.1 219.28L356.1 227.34L356.1 235.98L359.56 243.47" id="amtDgYU1J"></path><path d="M358.4 242.32L358.4 250.38L360.71 257.87L363.01 265.35L363.01 273.99L363.59 283.21L365.89 290.7L365.89 298.76L365.89 306.82" id="d5sDAsbq6d"></path><path d="M365.32 305.67L364.74 314.89L364.74 323.53L365.32 331.59L365.89 340.23L358.4 344.26" id="ac5RqHWcZ"></path><path d="M358.4 343.69L353.67 348.17L348.07 350.42L341.61 350.86L336.01 353.11L331.7 358.49L326.1 361.63L320.07 362.08L315.33 366.57L311.02 371.06L304.99 374.65L299.82 378.68L293.36 380.93L287.33 380.93L281.3 382.27" id="ksdcYbgSh"></path><path d="M422.91 95.45L426.37 103.51L428.67 111L430.97 120.21L432.7 130L435.01 138.07L437.89 145.56L440.19 153.04L441.34 161.11L443.65 168.59L444.8 177.23L446.53 185.3L448.25 193.36L450.56 200.85" id="d58F0Bfrq"></path><path d="M397.57 393.22L134.36 59.16" id="baXvEPiaZ"></path><path d="M452.28 405.31L144.15 52.83" id="a8TqJCVWs"></path><path d="M358.4 243.47L171.79 44.19" id="b1Q3AgJyIx"></path><path d="M353.8 184.72L191.95 39.58" id="c3A8kc6Un"></path><path d="M72.38 136.91L70.63 140.66L69.38 144.66L67.88 148.41L66.38 152.16L65.63 156.16L65.38 160.16L64.38 164.41L64.13 168.41L63.13 173.16L61.63 176.91L60.13 180.66L59.13 185.16L63.13 184.16L64.88 187.66L64.13 191.66L62.63 195.41L62.13 199.41L64.13 202.91L63.13 206.91L63.13 210.91L60.38 207.91L60.63 203.91L60.38 208.16L60.38 212.16L59.63 216.16L58.38 220.16L57.63 224.16L57.63 228.41L60.13 224.66L62.13 220.91L64.88 217.66L64.13 221.91L62.38 225.41L60.88 229.16L61.88 233.16L63.13 237.91L63.13 242.16L65.63 238.91L67.13 234.41L68.38 230.16L69.38 234.41L69.13 238.41L67.88 242.91L66.88 246.91L65.38 250.66L64.38 255.66L63.38 259.66L62.13 264.16L60.88 268.91L60.13 273.41L59.13 278.16L57.88 282.91L59.63 279.16L62.38 276.16L64.38 272.16L64.63 267.66L65.13 263.66L67.63 266.91L68.13 270.91L70.88 266.91L72.63 262.66L73.88 258.91L74.88 253.91L77.13 250.66L81.38 251.41L82.63 247.16L82.88 242.91L83.88 238.66L85.38 234.41L84.38 238.41L84.38 242.91L84.13 246.91L83.88 250.91L83.88 255.16L83.88 259.66L84.63 263.91L84.88 267.91L85.13 273.41L85.38 277.91L85.38 282.91L87.63 279.41L89.63 275.91L91.38 279.41L95.13 280.91L96.63 277.16L96.63 272.91L96.63 268.66L97.13 263.91L98.88 259.41L101.38 255.91L103.38 251.91L104.63 248.16L104.88 244.16L104.88 238.91L105.13 242.91L105.13 247.16L104.88 251.66L104.63 256.16L104.13 260.16L108.88 251.91L111.63 248.91L113.13 252.66L112.63 257.66L112.63 261.91L113.88 258.16L115.88 261.66L117.38 265.66L121.38 263.66L123.88 259.66L126.88 255.91L128.88 252.16L129.38 247.91L124.88 246.66L124.63 241.66L124.88 237.16L125.38 233.16L125.38 237.16L126.63 240.91L128.88 244.41L130.38 248.66L130.88 252.66L131.38 257.16L131.38 261.41L131.38 265.41L130.88 270.16L130.13 274.41L129.38 278.91L129.38 283.16L129.38 288.41L129.38 292.91L129.38 297.91L129.38 301.91L129.88 306.16L129.88 310.16L130.13 314.16L130.88 318.91L135.38 319.16L139.38 318.41L140.88 322.16L144.63 325.16L149.13 325.16L152.38 327.66L154.63 330.91L157.63 333.66L161.38 335.16" id="b1tThkoX4y"></path><path d="M82.88 89.66L82.63 93.66L81.88 97.66L80.88 101.91L80.13 105.91L79.13 110.16L77.63 113.91L76.63 118.16L75.88 122.16L75.63 126.41L75.13 130.66" id="i1E7lJFDZE"></path><path d="M94.4 78.66L94.14 83.25L94.14 87.84L93.38 92.16L93.38 97.01L94.65 103.22L94.65 108.08L94.4 112.66L96.44 108.89L96.7 104.57L96.95 100.25L97.47 95.66L98.49 91.35L100.53 86.76L102.32 82.98L104.11 78.39L104.88 74.08" id="cHAVjBxL1"></path><path d="M88.88 108.66L88.88 112.66L87.88 116.91L86.63 120.91L86.63 125.16L86.63 129.41L85.88 133.41L84.38 137.91L83.13 141.66L82.13 145.91L81.38 150.41L80.38 154.41L80.38 158.41L80.88 154.41L82.38 150.41L83.38 146.16L84.88 142.16L86.88 138.41L88.38 134.66L89.63 130.91L91.38 127.16L92.13 122.91L92.88 118.91L92.88 114.66L92.88 110.66L92.63 106.41L91.63 101.91L90.38 105.66L88.88 109.41" id="b6CuumM5R"></path><path d="M78.13 164.41L78.13 168.66L77.63 173.41L76.63 177.66L75.13 181.66L74.38 185.91L74.38 190.41L74.38 194.41L73.88 199.16L73.88 203.66L73.88 208.16L73.88 213.16L73.88 217.16L73.88 212.16L74.13 207.91L74.38 203.66L75.13 199.66L75.88 195.66L76.63 191.41L77.63 187.16L79.13 182.91L80.13 178.66L80.88 174.16L80.88 170.16L81.38 166.16L81.38 162.16L77.88 164.16" id="al5hR6dtE"></path><path d="M122.41 114.66L122.41 119.41L121.97 123.41L121.3 128.41L120.63 132.91L119.73 137.16L119.73 141.16L120.63 145.41L121.3 150.16L121.52 154.41L121.52 158.66L120.18 162.66L117.95 166.41L116.83 170.41L116.39 175.66L115.49 180.16L114.82 184.41L114.38 188.66L115.27 184.66L116.39 180.91L117.73 177.16L119.06 173.16L119.73 178.41L119.96 183.16L120.85 187.91L121.3 192.16L121.74 196.66L121.74 201.41L121.74 205.41L121.74 209.66L122.19 214.66L122.19 218.91L122.19 223.91L123.98 220.16L124.2 215.91L124.2 211.66L124.64 206.91L125.76 202.66L125.98 198.16L126.43 193.41L126.43 188.91L126.88 183.66L126.88 178.66L126.88 173.41L126.88 167.91L126.88 163.16L126.88 158.66L126.65 152.91L126.65 148.91L126.21 144.41L125.54 140.41L125.09 136.16L125.09 132.16L124.64 127.66L124.2 123.66L123.98 119.66L123.08 115.66" id="c1QLNV1BaB"></path><path d="M142.02 68.16L142.02 74.16L142.02 78.66L141.77 83.41L141.77 90.41L141.27 96.91L141.27 100.91L141.52 104.91L141.52 108.91L141.52 113.16L140.27 121.66L139.77 125.91L141.77 122.16L142.02 118.16L142.27 114.16L144.02 110.41L145.02 106.41L145.27 102.16L146.52 98.16L147.27 93.91L147.52 89.91L147.77 85.91L147.77 81.66L148.52 77.41" id="b4dMEHNK4z"></path><path d="M146.63 158.66L143.38 155.91L142.88 151.66L142.63 146.91L141.38 143.16L139.88 139.16L138.88 143.41L138.38 147.91L138.38 152.66L139.38 157.16L139.88 161.41L139.88 165.66L139.88 170.16L139.38 174.41L138.88 178.91L138.38 183.16L137.88 187.16L137.63 191.66L137.38 196.41L137.13 201.66L136.63 207.91L136.63 212.16L135.63 217.16L134.88 221.16L134.63 225.41L134.13 231.41L134.13 235.66L134.63 239.66L134.88 243.91L135.13 248.41L135.63 253.16L136.63 257.16L137.13 261.16L137.38 265.16L137.88 269.16L139.13 272.91" id="cOeVoBEst"></path><path d="M394.18 73.39L394.18 77.39L394.18 81.39L394.51 86.05L396.18 90.39L397.51 95.39L399.51 100.05L400.18 104.72L401.51 108.72L402.18 112.72L403.84 116.72L405.51 121.05L406.84 125.39L407.84 130.05L407.84 134.05L409.51 138.39L411.51 143.05L413.51 147.05L415.18 151.39L416.51 156.05L416.84 161.39L417.84 165.39L418.18 169.39L420.51 173.39L421.18 177.72L421.84 182.72L422.84 187.72L424.18 191.72L426.51 195.05L428.51 199.39L429.51 204.39L429.84 208.39L430.18 212.72L430.84 216.72L432.18 212.72L432.84 208.72L432.84 204.72L432.18 200.39L431.18 196.39L430.51 191.72L428.84 187.39L427.51 183.39L425.18 178.72L424.18 172.72L424.18 168.39L423.84 164.39L423.51 160.05L422.84 156.05L421.51 152.05L420.51 148.05L419.51 143.72L417.84 140.05L417.51 136.05L416.51 132.05L418.18 136.05L419.84 140.39L421.84 144.72L423.18 149.72L423.51 153.72L424.84 158.39L426.84 162.05L427.84 166.39L428.51 170.39L428.84 174.39L429.84 179.39L430.84 183.72L431.51 188.39L432.18 193.05L434.51 197.72L435.18 201.72L436.84 206.72L437.84 211.05L439.84 216.05L440.84 220.39L441.84 224.39L443.51 229.39L444.51 234.05L446.51 238.05L447.84 242.05L449.51 246.05L450.18 250.39L451.84 254.05" id="d3G9Uza4hQ"></path><path d="M401.18 78.39L402.84 82.72L404.84 86.39L404.84 90.39L406.18 94.39L407.51 98.72L408.18 102.72L409.51 107.39L410.51 111.72L412.84 108.39L411.51 104.39L410.84 100.05L410.84 96.05L410.84 92.05L410.84 88.05L410.51 84.05" id="a6Bz4Uyci"></path><path d="M415.18 86.39L416.18 93.05L417.18 97.05L418.18 101.72L419.51 106.05L420.84 111.05L422.18 115.39L424.51 120.05L425.51 124.39L427.84 128.05L428.84 132.72L430.18 136.72L430.84 140.72L432.18 144.72L433.84 148.72L434.51 153.05L436.84 156.39L438.18 160.39L440.18 164.05L442.84 168.05" id="c2c7ydpFp0"></path><path d="M359.84 53.72L358.51 58.05L356.84 61.72L356.18 66.05L357.84 69.72L360.84 73.72L363.51 76.72L364.51 80.72L365.18 76.72L367.51 73.05L369.51 69.39L370.51 74.05L370.51 78.05L370.84 82.72L371.84 87.05L373.84 90.72L374.84 96.05L376.18 101.05L376.84 105.05L377.51 110.05L377.84 114.72L377.84 121.05L377.84 125.39L377.84 130.05L378.51 134.05L380.51 137.72L381.51 141.72L383.51 147.72L384.18 153.05L384.51 157.72L384.51 162.72L384.51 167.39L384.84 171.39L386.51 175.05L387.84 180.39L389.84 184.39L391.84 188.05L393.51 193.39L394.18 197.39L394.84 201.39L395.51 207.05L397.18 210.72L399.84 215.05L402.18 219.39L405.18 223.72L407.84 227.72L409.51 233.39L410.18 237.39L411.51 241.72L413.18 247.39L415.51 250.72L417.51 256.05L417.51 260.05L414.18 257.72L411.84 253.39L410.18 249.72L408.18 244.05L406.51 239.72L404.18 236.39L401.84 233.05L401.51 238.72L401.51 243.39L401.51 247.72L403.18 252.05L405.51 256.72L408.18 260.72L411.51 265.05L414.18 269.72L415.51 274.39L416.18 278.72L416.18 282.72L417.18 287.05L418.84 290.72L420.84 295.05L420.84 299.39L417.84 295.05L416.18 291.39L413.84 288.05L411.84 283.72L410.84 278.39L408.51 274.05L407.18 269.72L406.18 265.39L404.51 261.39L402.18 258.05L399.84 254.72L397.84 251.05L396.51 247.05L396.18 242.72L395.18 238.39L394.51 234.39L393.84 230.05L392.84 224.05L391.84 220.05L390.51 216.05L388.51 211.39L387.18 207.05L386.51 211.72L386.51 216.05L386.51 220.05L386.51 226.05L387.84 230.39L388.84 234.39L389.84 238.39L389.84 243.72L389.84 249.72L389.84 253.72L389.84 258.05L391.18 263.39L392.84 267.05L393.84 271.05L395.18 275.39L397.18 280.72L398.51 285.05L400.18 289.72L400.51 295.05L401.51 299.39L400.18 304.72L402.84 310.39L404.84 317.05L404.84 321.05" id="aC7oon9ey"></path><path d="M404.51 320.05L405.51 324.05L407.51 327.72L407.84 331.72L408.51 336.05L404.84 337.72L401.18 339.39L397.51 341.05" id="g52cReN0Pz"></path><path d="M343.18 53.39L346.18 68.72L347.18 73.39L347.84 77.72L348.51 81.72L349.51 86.05L349.84 90.05L350.84 94.05L350.84 98.05L350.51 103.05L350.51 108.05L350.51 112.72L350.51 117.05L351.84 122.05L353.18 126.39L354.51 130.72L354.51 134.72L354.51 139.39L353.84 143.39L353.51 147.39L353.51 151.39L354.51 155.39L355.51 159.72L355.51 164.05L355.18 168.39L354.51 173.39L353.51 177.39" id="b2YOPSzpcz"></path><path d="M343.51 53.39L345.51 57.72L347.84 61.39L348.51 65.39L349.51 69.39L350.84 74.39L353.18 78.39L354.84 83.05L356.84 88.72L357.51 93.39L357.51 98.05L359.51 103.39L361.51 107.72L363.84 113.39L367.18 116.39L368.18 120.39L369.51 124.39L370.51 128.72L370.84 132.72L373.18 140.05L373.18 144.05L374.18 149.72L374.84 154.72L375.18 159.39L375.51 164.05L376.51 168.05L377.18 173.05L377.18 177.72L375.18 173.39L374.18 169.39L373.18 164.72L371.51 160.05L370.18 156.05L368.51 151.72L366.84 147.39L365.18 143.72L363.51 140.05L363.51 144.39L363.51 148.72L363.84 153.39L365.51 158.39L367.84 163.72L369.51 167.39L370.18 171.72L370.84 176.05L370.84 180.39L371.18 184.39L371.51 190.05L372.84 194.05L374.51 197.72L377.18 202.72L378.84 207.05L380.51 210.72L381.51 214.72L381.84 218.72L381.84 223.05L380.18 226.72L379.51 231.05L378.51 236.05L377.18 240.05L373.84 242.72L370.84 246.05L367.51 249.72L364.51 252.72L362.18 256.05" id="b1L7B5g7y"></path><path d="M449.84 335.05L448.51 331.05L446.84 326.39L445.18 322.05L442.84 316.72L440.84 313.05L439.51 307.72L437.51 303.05L436.51 298.72L434.84 294.05L434.51 290.05L434.51 284.72L434.51 280.05L434.18 275.05L434.18 270.72L433.84 265.05L433.18 258.05L430.84 254.05L428.84 249.72L427.18 244.72L425.51 238.39L425.18 233.72L424.84 229.72L424.18 225.39L424.18 221.05L423.84 225.39L425.51 230.05L427.51 234.05L428.84 238.72L429.84 243.05L431.51 247.39L434.18 250.39L436.84 254.05L438.84 258.39L439.84 264.05L439.84 268.05L438.84 273.05L438.51 277.72L438.84 282.05L440.84 286.39L443.84 290.05L445.51 293.72L447.84 298.05L448.84 302.72L450.51 306.39" id="bbGbwr2Ax"></path><path d="M201.07 341.04L201.26 328.98L202.39 341.04L205.39 341.04L205.01 332.98L205.39 326.29L206.89 323.29L206.14 314.48L202.95 313.67C203.91 308.58 203.28 306.37 201.07 307.04C198.87 307.71 198.51 310.02 200.01 313.98L197.95 314.48L195.01 311.71L194.2 306.42L193.07 306.42L193.26 312.85L198.64 317.6L197.95 341.04L201.07 341.04Z" id="a2vSgCbU"></path><path d="M174.41 309.67C181.24 315.33 182.62 323.27 178.54 333.48L182.85 333.48L181.04 333.48L181.04 337.29" id="baMHfQciMP"></path><path d="M190.35 333.54C188.26 332.79 186.93 328.67 186.35 321.17L190.35 317.85L184.85 312.6C188.56 314.06 189.68 314.5 188.22 313.92C186.76 313.33 185.54 310.9 184.54 306.6C181.95 305.15 180.66 305.6 180.66 307.98C180.66 310.35 181.18 311.73 182.22 312.1L181.29 313.48L180.41 313.48L175.35 309.1L174.79 310.04" id="c8ezfABug3"></path><path d="M181.04 336.92L180.79 339.04L182.85 338.79L182.85 333.35L184.54 333.54L184.54 339.23L186.77 339.23L186.91 336.67L186.91 333.54L190.1 333.54" id="i4IdqNuQE"></path><path d="M241.08 326.09C233.94 323.62 227.98 325 223.22 330.24C218.46 328.52 214.51 329.14 211.36 332.09C208.22 335.05 208.22 337.76 211.36 340.24" id="bdSsx28xX"></path><path d="" id="a3Y18gAsyU"></path><path d="M311.22 312.24C278.79 305.81 261.79 311.52 256.36 313.24C252.74 314.38 247.65 318.67 241.08 326.09" id="a1WQq8f2a8"></path><path d="M332.36 352.52C335.51 342.38 332.22 341.52 326.65 327.38C322.94 317.95 317.55 312.9 310.51 312.24" id="b7mreV6V89"></path><path d="M317.08 343.24C323.36 341.71 326.03 344.81 325.08 352.52L332.65 352.52" id="bDgmvv8Ro"></path><path d="M313.79 349.81C314.65 345.33 315.74 343.14 317.08 343.24" id="bNr0yH81D"></path><path d="M272.65 355.09C283.89 353.67 293.51 353.28 301.51 353.95C309.51 354.62 313.6 353.09 313.79 349.38" id="c1j2gh3drU"></path><path d="M255.31 348.38C255.63 341.52 258.51 338 263.94 337.81C269.36 337.62 272.27 343.38 272.65 355.09" id="aEXfSNJpA"></path><path d="M221.36 337.8C218.03 337.42 215.13 338.99 212.65 342.52" id="clQ3cQygc"></path><path d="M229.51 337.75C226.84 334.66 224.13 334.68 221.36 337.8" id="b166AIhLhm"></path><path d="M245.79 342.52C245.22 338.62 239.79 336.9 229.51 337.38" id="d1sVvPZUC1"></path><path d="M246.08 344.81C251.98 344.05 251.89 343.28 245.79 342.52" id="axasnTsm"></path><path d="M211.22 347.38C207.6 347.95 206.6 349.67 208.22 352.52L246.65 352.52C252.17 353.09 255.06 352.43 255.31 350.52C255.68 347.67 251.51 347.81 249.08 347.69C247.46 347.61 246.65 346.65 246.65 344.81" id="b3xedr1m7"></path><path d="M212.65 342.86C209.89 343.02 209.41 343.81 211.22 345.24C213.03 346.67 212.89 347.48 210.79 347.69" id="eFVwQ5Sh4"></path><path d="M224.36 347.38C221.22 344.33 221.22 341.52 224.36 338.95" id="a3uUIPEFyZ"></path><path d="M225.04 338.95C228.73 341.71 228.51 344.63 224.36 347.69" id="ccJ4AINn4"></path><path d="M221.36 342.52L214.22 343.17" id="c3gambJ9vn"></path><path d="M244.36 342.52L227.22 342.52" id="b17OXIzaPz"></path><path d="M243.22 344.38L230.65 345.28L230.65 347.69" id="a2GTWO3yAf"></path><path d="" id="a49GG74Eu"></path><path d="M214.79 345.28L222.01 345.28L222.01 347.69" id="g2ljeDahnQ"></path><path d="M275.36 326.09C263.08 323.9 251.98 323.9 242.08 326.09" id="buaQUBVN7"></path><path d="M253.94 363.52C251.46 361.89 250.15 358.3 250 352.72" id="a1lFRQb0oy"></path><path d="M370.62 353.24L353.22 330.55" id="a5o7YGjbK"></path><path d="M267.21 193.88L266.63 187.2L266.44 182.98L266.44 178.76L266.63 173.84L267.02 168.56L267.02 163.29L267.02 158.37L267.02 154.15L267.4 149.93L267.59 145.71" id="b312B8xhzy"></path><path d="M270.51 354.21C269.57 360.43 267 363.53 262.79 363.52C257.79 362.76 255.41 359.4 255.65 353.42C255.89 347.44 258.37 344.02 263.08 343.17" id="e1LIpH63eF"></path><path d="M260.35 343.8C263.6 343.21 266.35 341.9 269.23 346.5C271.14 349.56 271.31 353.28 269.73 357.67" id="a1EjD3FY1H"></path><path d="M317.08 343.23C321.22 343 323.17 346 322.92 352.24C322.67 358.47 320.58 361.62 316.67 361.68" id="a3RR3rpMkK"></path><path d="M318.67 361.68C314.08 362.04 311.71 359.06 311.53 352.72" id="e2fZEboBL6"></path><path d="M319.69 352.81C319.08 355.64 318.43 356.73 316.97 356.98C315.5 357.23 314.05 355.85 313.68 352.33C313.43 349.98 314.39 348.36 316.55 347.47" id="b3l3qH0tgi"></path><path d="M277.94 315.95C271.55 313 262.89 313 251.94 315.95" id="a6DjolqQt9"></path><path d="M276.94 321.09C278.36 318.71 278.7 317 277.94 315.95" id="a4H913fHOV"></path><path d="" id="gqUxIBuIh"></path><path d="M319.51 318.95C319.89 316.57 315.89 315.05 307.51 314.38C294.94 313.38 289.51 314.52 285.65 314.38C283.08 314.28 280.17 318.33 276.94 326.52" id="c2maqsc3Lt"></path><path d="" id="ab3TwyJS"></path><path d="M300.79 326.52C300.7 319.67 299.46 315.52 297.08 314.09" id="bci0fszEq"></path><path d="" id="a1577n94q3"></path><path d="M303.65 350.09C306.79 341.24 303.65 333.09 303.65 330.38C303.65 328.57 302.7 327.14 300.79 326.09" id="b2afWtsZPp"></path><path d="M280.79 350.09C283.94 341.24 280.79 333.09 280.79 330.38C280.79 328.57 279.84 327.14 277.94 326.09" id="a1P2tbNQk4"></path><path d="" id="e867JBKwGT"></path><path d="" id="b2OdXurokW"></path><path d="" id="bG0GogEy2"></path><path d="M213.63 336.5C213.82 338.47 212.39 338.86 211.92 338.75C211.46 338.64 209.6 338.11 210.38 335.52C210.9 333.79 211.74 332.95 212.91 333.02C213.26 334.03 213.5 335.19 213.63 336.5Z" id="aFmz2pzRF"></path><path d="M252.15 336.32C252.34 338.29 250.91 338.68 250.44 338.57C249.98 338.46 248.12 337.93 248.9 335.34C249.42 333.61 250.26 332.77 251.43 332.84C251.78 333.85 252.02 335.01 252.15 336.32Z" id="d5FjlgjTvl"></path><path d="M252.34 339.95C254.32 338.33 254.75 336.13 253.63 333.36C252.5 330.59 250.82 330.39 248.58 332.77" id="kc8Nra1DV"></path><path d="M214.79 333.54C214.78 331.52 213.87 330.85 212.06 331.52" id="b1DyHDYFrL"></path><path d="" id="cpRP2uRIm"></path><path d="M222.36 361.65C217.79 362.02 215.51 359.22 215.51 353.24" id="agb5dORjN"></path><path d="M232.65 353.42C232.74 360.02 229.32 362.76 222.36 361.65" id="a4QbXnROhR"></path><path d="M315.92 347.69C316.92 347.24 317.83 347.6 318.67 348.76C319.5 349.93 319.79 351.42 319.53 353.24" id="d2CTiOvXQ0"></path><path d="M262.22 363.52L253.36 363.52" id="l8smJCXIy"></path><path d="M318.19 361.89C312.45 363.37 309.08 360.92 308.08 354.52" id="c46gR8a6nI"></path><path d="M300.05 328.06L281.3 327.31" id="h1O75cQLVd"></path><path d="M324.86 329.06L306.3 327.68" id="k26X5gU2G"></path><path d="M205.8 362.31L209.8 361.56L213.8 361.56L217.8 361.56L221.8 361.56L225.8 361.81L230.05 362.81L234.3 363.31L238.55 363.56L243.05 363.56L247.05 363.56L251.3 364.06L255.3 364.31L259.3 364.81L263.3 364.31L267.3 363.81L271.8 363.06L275.8 362.81L280.8 362.81L285.55 362.31L290.55 361.31L295.55 360.81L299.55 360.81L303.8 360.81L308.05 361.56L312.05 362.31L316.3 363.06L320.3 363.06" id="b3v1fBHiaM"></path><path d="M209.59 342.85L205.59 341.19L201.59 341.19L197.59 341.19L193.59 341.19L189.59 340.52L185.59 340.52L181.59 339.52" id="aDvyNE6Z"></path><path d="M43.59 350.85L51.52 350.52L64.97 350.19L71.52 349.52L76.69 348.85L82.9 347.85L88.42 347.52L95.66 347.52L105.66 347.52L109.8 347.52L115.32 347.52L120.14 347.52L124.28 347.85L131.87 348.85L136.35 348.85L142.9 348.85L148.42 348.85L156.01 348.85L160.83 348.52L167.39 347.52L171.52 345.85L177.73 345.19L182.56 345.19L188.08 345.19L192.56 345.19L197.39 345.19L201.87 345.19L206.01 345.52L210.15 346.85" id="av6fadADL"></path><path d="" id="b1dsRe6ddC"></path><path d="M172.95 89.66L146.63 59.16" id="bMyDUmu8h"></path><path d="M164.28 83.21L152.62 68.95" id="c1yKLJ7kOL"></path><path d="M275.62 236.04L179.95 114.66" id="asDGGv4jc"></path><path d="M325.28 263.21L272.87 204.21" id="b4b8W46uto"></path><path d="M296.62 234.88L251.95 184.72" id="a1ALCVvl64"></path><path d="M378.62 366.21L322.05 294.21" id="aaQ72slxDx"></path><path d="M266.09 354.11C265.48 356.94 264.83 358.02 263.37 358.27C261.91 358.52 260.46 357.15 260.08 353.62C259.84 351.27 260.79 349.65 262.96 348.76" id="c3xRMYyWvP"></path><path d="M426.62 380.88L374.62 320.24" id="bu2eeaJ5k"></path><path d="M404.62 359.21L385.62 337.75" id="d2woXagZms"></path><path d="M322.05 200.85L357.28 239.21" id="a1iRQxQiRC"></path><path d="M356.18 233.71L313.36 185.54" id="b1aHgALD4c"></path><path d="M353.8 189.54L336.28 174.54" id="bqdmjNXIu"></path><path d="M355.51 193.54L345.28 186.54" id="g1cUEW67YP"></path><path d="M229.62 76.08L187.95 38.88" id="bzUIAron"></path><path d="M239.28 87.38L214.28 65.54" id="c1464a2iE"></path><path d="M258.95 134.21L208.78 80.88" id="g1Ftbokt6r"></path><path d="M301.62 175.35L239.95 110.21" id="a80vcrDs9g"></path><path d="M114.38 457.49L114.38 388.99" id="e14Ij2XqQ"></path><path d="M174.92 48.88L174.92 53.8L174.64 58.34L174.06 62.88L173.77 68.55L173.77 73.47L173.77 78.39L173.77 82.93L173.77 87.47" id="bQ5jHp9Da"></path><path d="M172.11 105.54L171.76 110.59L170.7 114.63L169.64 118.67L169.64 124.72L170.7 129.77L170.7 134.48L169.64 138.86L169.28 143.23L169.28 147.6L167.87 151.64L166.45 155.68L165.39 160.05L165.39 164.09L164.68 168.13L165.04 173.18L167.16 184.28L167.87 188.32L168.22 192.69L168.22 197.07L168.22 201.44L168.22 205.48L168.22 210.19L167.87 215.23L166.45 219.95L165.39 224.66L164.33 228.69L162.91 233.4L161.85 238.11L160.08 243.5L158.67 249.55L157.96 255.28L157.96 259.31L157.25 265.37L156.9 270.08L156.9 274.12L156.54 279.84L156.54 285.56L156.54 290.27L156.54 295.65L156.54 301.04L156.54 306.76L156.54 311.13L155.48 315.84L154.77 319.88" id="bnIQn0iS3"></path><path d="M228.44 325.54L226.44 320.5L225.77 316.13L225.77 312.1L225.44 306.72L223.77 302.35L223.77 296.98L223.77 292.61L222.44 286.56L222.44 282.19L222.44 277.15L222.44 272.78L222.11 268.41L222.11 263.7L222.11 258.66L221.77 252.95L221.77 248.92L221.77 244.21L221.77 239.17L221.77 235.14L221.77 230.1L221.77 225.73L221.77 221.69L221.11 216.32L221.11 211.61L221.11 207.24L220.44 203.21L220.11 198.5L219.11 193.8L218.77 188.76L217.77 184.72L217.11 179.68L216.77 175.65L215.77 171.28L215.77 166.91L215.77 162.88" id="a15wtRoqbL"></path><path d="M215.77 134.21L215.77 129.1L215.77 123.98L216.16 118.48L216.54 110.61L216.54 105.1L216.54 100.38L216.73 95.27L216.92 90.54" id="a302sdB5ga"></path><path d="M221.44 65.88L221.44 60.88L221.44 56.54L224.44 53.54L225.44 49.54L225.77 45.54L225.77 41.21L225.44 36.88L225.11 32.21" id="a17J1NV18u"></path><path d="M251.11 315.54L251.38 310.67L251.66 306.48L252.21 301.95L253.03 296.73L253.03 292.2L253.03 288.01L253.86 283.14L253.86 278.61L253.86 273.03L253.86 267.8L253.86 263.27L253.86 258.39L254.41 253.51L254.96 248.29L255.51 243.06L255.79 238.18L256.34 234L256.62 229.47L256.89 224.24L257.17 220.06L257.44 215.88" id="b1k1Be5IK1"></path><path d="M267.56 309.88L265.55 305.8L265.26 301.04L265.26 296.29L265.26 292.21L265.26 287.45L265.26 280.66L265.26 276.24L264.97 271.48L264.39 265.71L264.11 260.61L264.11 254.49L264.11 250.42L264.11 244.64L264.11 240.22L264.11 236.15L264.11 232.07L264.11 227.99L264.39 223.91" id="c20isgq4zP"></path><path d="M258.64 183.88L258.35 178.73L258.06 173.58L257.77 165.86L257.77 160.35L257.77 155.57L257.77 150.79L258.35 145.64L258.92 140.49L258.92 135.71" id="btb7qnpM0"></path><path d="M262.32 348.99C263.32 348.53 264.24 348.89 265.07 350.06C265.9 351.23 266.19 352.72 265.94 354.53" id="b191AiKeV1"></path><path d="M263.05 31.2L263.07 36.44L262.06 41.34L261.74 45.54L261.77 51.13L261.45 55.68L261.14 61.97L261.16 66.16L260.84 71.41L259.83 75.61L259.85 79.8L260.22 84.69L260.93 89.23L262 94.12L262.71 99.01L262.74 103.2" id="a6cqYfjTRE"></path><path d="M270.44 110.21L269.77 106.21L269.77 101.54L269.77 97.21L269.77 92.54L269.77 88.21L269.11 83.54L268.77 78.21L268.77 72.88L268.77 68.88L268.77 64.88L268.77 60.21L268.77 54.88L268.77 50.88L270.11 46.88L270.77 42.88L271.77 38.88L272.44 34.54" id="a1JIShGt7S"></path><path d="M281.11 308.88L283.11 298.97L283.11 294.57L283.44 289.07L283.44 284.66L283.77 279.53L284.77 275.12L285.44 270.72L286.44 265.95L287.11 261.55L287.44 256.78L287.77 252.38" id="a5cwyikDNT"></path><path d="M293.29 222.21L293.29 217.96L293.95 213.71L294.27 209.11L294.27 204.86L294.44 200.25L294.44 196L294.27 191.75L294.11 186.79L293.95 182.54L293.95 178.29L293.45 174.04" id="cP5U7F5vx"></path><path d="M293.77 130.88L293.77 126.88L293.11 120.88L291.77 111.54L291.44 104.54L290.77 98.88L290.11 93.88L289.11 87.88L289.11 82.88L289.11 78.21L291.11 74.54L292.44 70.21L293.44 66.21L294.44 62.21L294.44 57.88L294.77 53.54L295.44 48.21L295.77 44.21L295.77 39.88L295.77 35.88" id="f5jN0GXzNv"></path><path d="M318.11 38.21L318.11 42.21L317.44 47.54L317.11 53.54L316.44 58.21L316.44 63.54L316.44 67.88L318.11 73.21L320.44 78.21L321.77 82.21L321.77 86.88L322.44 91.54L323.44 95.54L323.44 100.54L323.44 109.54L323.44 114.21L323.44 119.21L323.44 124.21L323.44 128.21L323.44 133.88L323.44 139.21L323.77 143.54L323.77 148.21L323.44 152.54L322.44 156.54" id="e4X7DwlDqX"></path><path d="M319.77 200.88L320.57 206.21L320.84 210.47L321.37 215.09L321.37 219.35L321.37 223.97L320.57 228.59L320.57 232.85L320.3 237.82L320.84 242.44L321.37 246.7L322.43 251.32L322.96 255.94L323.23 260.2" id="d1xG6IEEfs"></path><path d="M323.44 299.21L324.15 303.79L325.21 308.76L327.33 314.87L328.39 319.84L328.74 324.8L329.1 329.38L330.51 333.97L332.99 338.93L335.11 343.52L337.23 349.25L339 354.21" id="a1iPNHn3I6"></path><path d="M275.44 388.97L270.57 457.47L264.62 457.47L258.1 411.97L253.23 411.97L249.82 456.88L243.44 456.88L231.57 388.97" id="bf4ahFEzG"></path><path d="M128.14 424.99C148.14 415.65 150.21 404.49 134.36 391.49L114.38 391.49" id="i1GBmd5RgR"></path><path d="M147.63 454.49L129.14 421.99" id="a6BRfKQqMt"></path><path d="M157.64 457.49L157.64 388.99" id="i2KfjUZgR"></path><path d="" id="b9c8DrLby"></path><path d="M178.63 454.99L157.64 454.99" id="h3udr48fGX"></path><path d="M178.63 424.99L157.64 424.99" id="g2JoT6jMhq"></path><path d="M177.14 391.49L157.64 391.49" id="c6XoZvucU"></path><path d="" id="c1nvUwNZ3k"></path><path d="M193.07 388.99L193.07 457.49" id="c1iTySTh3e"></path><path d="M216.39 455.45C232.06 430.89 231.37 409.72 214.34 391.95L192.07 391.03" id="fK8wXLXIF"></path><path d="M217.51 455.89L193.95 455.89" id="b8Dvjy4UI"></path><path d="" id="a9oNtmKBx"></path><path d="M310.51 422.78C313.66 446.59 309.56 458.15 298.22 457.49C289.09 456.88 283.95 445.31 282.78 422.78C281.61 400.25 286.38 388.99 297.08 388.99" id="a2Qu91Oj0"></path><path d="M310.51 423.82C308.83 399.16 304.17 387.74 296.53 389.57" id="fiyqAvsfs"></path><path d="M346.09 423.18C349.24 446.98 345.14 458.55 333.8 457.88C324.67 457.27 319.52 445.7 318.36 423.18C317.19 400.65 321.96 389.38 332.66 389.38" id="bGILhmodm"></path><path d="M346.09 424.22C344.4 399.55 339.75 388.13 332.11 389.97" id="dyfXmW7g"></path><path d="M379.05 454.85C394.72 430.29 394.03 409.13 376.99 391.35L354.72 390.44" id="aHzGzgusP"></path><path d="M380.28 454.85L356.72 454.85" id="i5RZvVUvZq"></path><path d="M355.47 388.14L355.47 456.64" id="bhXsyzQt4"></path></defs><g><g><g><g><use xlink:href="#b6fXthtcyx" opacity="1" fill-opacity="0" stroke="#000000" stroke-width="5" stroke-opacity="1"></use></g></g><g><g><use xlink:href="#fa5pU9FuQ" opacity="1" fill-opacity="0" stroke="#000000" stroke-width="5" stroke-opacity="1"></use></g></g><g><g><use xlink:href="#f3Vz7zuKrt" opacity="1" fill-opacity="0" stroke="#000000" stroke-width="3" stroke-opacity="1"></use></g></g><g><g><use xlink:href="#a1p5ICZHXx" opacity="1" fill-opacity="0" stroke="#000000" stroke-width="3" stroke-opacity="1"></use></g></g><g><g><use xlink:href="#m1xfpI58vm" opacity="1" fill-opacity="0" stroke="#000000" stroke-width="1" stroke-opacity="1"></use></g></g><g><g><use xlink:href="#b91KQGEYqf" opacity="1" fill-opacity="0" stroke="#000000" stroke-width="3" stroke-opacity="1"></use></g></g><g><g><use xlink:href="#b1gdex9yhh" opacity="1" fill-opacity="0" stroke="#000000" stroke-width="3" stroke-opacity="1"></use></g></g><g><g><use xlink:href="#amtDgYU1J" opacity="1" fill-opacity="0" stroke="#000000" stroke-width="1" stroke-opacity="1"></use></g></g><g><g><use xlink:href="#d5sDAsbq6d" opacity="1" fill-opacity="0" stroke="#000000" stroke-width="3" stroke-opacity="1"></use></g></g><g><g><use xlink:href="#ac5RqHWcZ" opacity="1" fill-opacity="0" stroke="#000000" stroke-width="1" stroke-opacity="1"></use></g></g><g><g><use xlink:href="#ksdcYbgSh" opacity="1" fill-opacity="0" stroke="#000000" stroke-width="3" stroke-opacity="1"></use></g></g><g><g><use xlink:href="#d58F0Bfrq" opacity="1" fill-opacity="0" stroke="#000000" stroke-width="2" stroke-opacity="1"></use></g></g><g><g><use xlink:href="#baXvEPiaZ" opacity="1" fill-opacity="0" stroke="#000000" stroke-width="1" stroke-opacity="1"></use></g></g><g><g><use xlink:href="#a8TqJCVWs" opacity="1" fill-opacity="0" stroke="#000000" stroke-width="1" stroke-opacity="1"></use></g></g><g><g><use xlink:href="#b1Q3AgJyIx" opacity="1" fill-opacity="0" stroke="#000000" stroke-width="1" stroke-opacity="1"></use></g></g><g><g><use xlink:href="#c3A8kc6Un" opacity="1" fill-opacity="0" stroke="#000000" stroke-width="1" stroke-opacity="1"></use></g></g><g><g><use xlink:href="#b1tThkoX4y" opacity="1" fill-opacity="0" stroke="#000000" stroke-width="1" stroke-opacity="1"></use></g></g><g><g><use xlink:href="#i1E7lJFDZE" opacity="1" fill-opacity="0" stroke="#000000" stroke-width="1" stroke-opacity="1"></use></g></g><g><g><use xlink:href="#cHAVjBxL1" opacity="1" fill-opacity="0" stroke="#000000" stroke-width="1" stroke-opacity="1"></use></g></g><g><g><use xlink:href="#b6CuumM5R" opacity="1" fill-opacity="0" stroke="#000000" stroke-width="1" stroke-opacity="1"></use></g></g><g><g><use xlink:href="#al5hR6dtE" opacity="1" fill-opacity="0" stroke="#000000" stroke-width="1" stroke-opacity="1"></use></g></g><g><g><use xlink:href="#c1QLNV1BaB" opacity="1" fill-opacity="0" stroke="#000000" stroke-width="1" stroke-opacity="1"></use></g></g><g><g><use xlink:href="#b4dMEHNK4z" opacity="1" fill-opacity="0" stroke="#000000" stroke-width="1" stroke-opacity="1"></use></g></g><g><g><use xlink:href="#cOeVoBEst" opacity="1" fill-opacity="0" stroke="#000000" stroke-width="1" stroke-opacity="1"></use></g></g><g><g><use xlink:href="#d3G9Uza4hQ" opacity="1" fill-opacity="0" stroke="#000000" stroke-width="1" stroke-opacity="1"></use></g></g><g><g><use xlink:href="#a6Bz4Uyci" opacity="1" fill-opacity="0" stroke="#000000" stroke-width="1" stroke-opacity="1"></use></g></g><g><g><use xlink:href="#c2c7ydpFp0" opacity="1" fill-opacity="0" stroke="#000000" stroke-width="1" stroke-opacity="1"></use></g></g><g><g><use xlink:href="#aC7oon9ey" opacity="1" fill-opacity="0" stroke="#000000" stroke-width="1" stroke-opacity="1"></use></g></g><g><g><use xlink:href="#g52cReN0Pz" opacity="1" fill-opacity="0" stroke="#000000" stroke-width="1" stroke-opacity="1"></use></g></g><g><g><use xlink:href="#b2YOPSzpcz" opacity="1" fill-opacity="0" stroke="#000000" stroke-width="1" stroke-opacity="1"></use></g></g><g><g><use xlink:href="#b1L7B5g7y" opacity="1" fill-opacity="0" stroke="#000000" stroke-width="1" stroke-opacity="1"></use></g></g><g><g><use xlink:href="#bbGbwr2Ax" opacity="1" fill-opacity="0" stroke="#000000" stroke-width="1" stroke-opacity="1"></use></g></g><g><g><use xlink:href="#a2vSgCbU" opacity="1" fill-opacity="0" stroke="#000000" stroke-width="1" stroke-opacity="1"></use></g></g><g><g><use xlink:href="#baMHfQciMP" opacity="1" fill-opacity="0" stroke="#000000" stroke-width="1" stroke-opacity="1"></use></g></g><g><g><use xlink:href="#c8ezfABug3" opacity="1" fill-opacity="0" stroke="#000000" stroke-width="1" stroke-opacity="1"></use></g></g><g><g><use xlink:href="#i4IdqNuQE" opacity="1" fill-opacity="0" stroke="#000000" stroke-width="1" stroke-opacity="1"></use></g></g><g><g><use xlink:href="#bdSsx28xX" opacity="1" fill-opacity="0" stroke="#000000" stroke-width="1" stroke-opacity="1"></use></g></g><g><g><use xlink:href="#a3Y18gAsyU" opacity="1" fill-opacity="0" stroke="#000000" stroke-width="1" stroke-opacity="1"></use></g></g><g><g><use xlink:href="#a1WQq8f2a8" opacity="1" fill-opacity="0" stroke="#000000" stroke-width="1" stroke-opacity="1"></use></g></g><g><g><use xlink:href="#b7mreV6V89" opacity="1" fill-opacity="0" stroke="#000000" stroke-width="1" stroke-opacity="1"></use></g></g><g><g><use xlink:href="#bDgmvv8Ro" opacity="1" fill-opacity="0" stroke="#000000" stroke-width="1" stroke-opacity="1"></use></g></g><g><g><use xlink:href="#bNr0yH81D" opacity="1" fill-opacity="0" stroke="#000000" stroke-width="1" stroke-opacity="1"></use></g></g><g><g><use xlink:href="#c1j2gh3drU" opacity="1" fill-opacity="0" stroke="#000000" stroke-width="1" stroke-opacity="1"></use></g></g><g><g><use xlink:href="#aEXfSNJpA" opacity="1" fill-opacity="0" stroke="#000000" stroke-width="1" stroke-opacity="1"></use></g></g><g><g><use xlink:href="#clQ3cQygc" opacity="1" fill-opacity="0" stroke="#000000" stroke-width="1" stroke-opacity="1"></use></g></g><g><g><use xlink:href="#b166AIhLhm" opacity="1" fill-opacity="0" stroke="#000000" stroke-width="1" stroke-opacity="1"></use></g></g><g><g><use xlink:href="#d1sVvPZUC1" opacity="1" fill-opacity="0" stroke="#000000" stroke-width="1" stroke-opacity="1"></use></g></g><g><g><use xlink:href="#axasnTsm" opacity="1" fill-opacity="0" stroke="#000000" stroke-width="1" stroke-opacity="1"></use></g></g><g><g><use xlink:href="#b3xedr1m7" opacity="1" fill-opacity="0" stroke="#000000" stroke-width="1" stroke-opacity="1"></use></g></g><g><g><use xlink:href="#eFVwQ5Sh4" opacity="1" fill-opacity="0" stroke="#000000" stroke-width="1" stroke-opacity="1"></use></g></g><g><g><use xlink:href="#a3uUIPEFyZ" opacity="1" fill-opacity="0" stroke="#000000" stroke-width="1" stroke-opacity="1"></use></g></g><g><g><use xlink:href="#ccJ4AINn4" opacity="1" fill-opacity="0" stroke="#000000" stroke-width="1" stroke-opacity="1"></use></g></g><g><g><use xlink:href="#c3gambJ9vn" opacity="1" fill-opacity="0" stroke="#000000" stroke-width="1" stroke-opacity="1"></use></g></g><g><g><use xlink:href="#b17OXIzaPz" opacity="1" fill-opacity="0" stroke="#000000" stroke-width="1" stroke-opacity="1"></use></g></g><g><g><use xlink:href="#a2GTWO3yAf" opacity="1" fill-opacity="0" stroke="#000000" stroke-width="1" stroke-opacity="1"></use></g></g><g><g><use xlink:href="#a49GG74Eu" opacity="1" fill-opacity="0" stroke="#000000" stroke-width="1" stroke-opacity="1"></use></g></g><g><g><use xlink:href="#g2ljeDahnQ" opacity="1" fill-opacity="0" stroke="#000000" stroke-width="1" stroke-opacity="1"></use></g></g><g><g><use xlink:href="#buaQUBVN7" opacity="1" fill-opacity="0" stroke="#000000" stroke-width="1" stroke-opacity="1"></use></g></g><g><g><use xlink:href="#a1lFRQb0oy" opacity="1" fill-opacity="0" stroke="#000000" stroke-width="1" stroke-opacity="1"></use></g></g><g><g><use xlink:href="#a5o7YGjbK" opacity="1" fill-opacity="0" stroke="#000000" stroke-width="1" stroke-opacity="1"></use></g></g><g><g><use xlink:href="#b312B8xhzy" opacity="1" fill-opacity="0" stroke="#000000" stroke-width="1" stroke-opacity="1"></use></g></g><g><g><use xlink:href="#e1LIpH63eF" opacity="1" fill-opacity="0" stroke="#000000" stroke-width="1" stroke-opacity="1"></use></g></g><g><g><use xlink:href="#a1EjD3FY1H" opacity="1" fill-opacity="0" stroke="#000000" stroke-width="1" stroke-opacity="1"></use></g></g><g><g><use xlink:href="#a3RR3rpMkK" opacity="1" fill-opacity="0" stroke="#000000" stroke-width="1" stroke-opacity="1"></use></g></g><g><g><use xlink:href="#e2fZEboBL6" opacity="1" fill-opacity="0" stroke="#000000" stroke-width="1" stroke-opacity="1"></use></g></g><g><g><use xlink:href="#b3l3qH0tgi" opacity="1" fill-opacity="0" stroke="#000000" stroke-width="1" stroke-opacity="1"></use></g></g><g><g><use xlink:href="#a6DjolqQt9" opacity="1" fill-opacity="0" stroke="#000000" stroke-width="1" stroke-opacity="1"></use></g></g><g><g><use xlink:href="#a4H913fHOV" opacity="1" fill-opacity="0" stroke="#000000" stroke-width="1" stroke-opacity="1"></use></g></g><g><g><use xlink:href="#gqUxIBuIh" opacity="1" fill-opacity="0" stroke="#000000" stroke-width="1" stroke-opacity="1"></use></g></g><g><g><use xlink:href="#c2maqsc3Lt" opacity="1" fill-opacity="0" stroke="#000000" stroke-width="1" stroke-opacity="1"></use></g></g><g><g><use xlink:href="#ab3TwyJS" opacity="1" fill-opacity="0" stroke="#000000" stroke-width="1" stroke-opacity="1"></use></g></g><g><g><use xlink:href="#bci0fszEq" opacity="1" fill-opacity="0" stroke="#000000" stroke-width="1" stroke-opacity="1"></use></g></g><g><g><use xlink:href="#a1577n94q3" opacity="1" fill-opacity="0" stroke="#000000" stroke-width="1" stroke-opacity="1"></use></g></g><g><g><use xlink:href="#b2afWtsZPp" opacity="1" fill-opacity="0" stroke="#000000" stroke-width="1" stroke-opacity="1"></use></g></g><g><g><use xlink:href="#a1P2tbNQk4" opacity="1" fill-opacity="0" stroke="#000000" stroke-width="1" stroke-opacity="1"></use></g></g><g><g><use xlink:href="#e867JBKwGT" opacity="1" fill-opacity="0" stroke="#000000" stroke-width="1" stroke-opacity="1"></use></g></g><g><g><use xlink:href="#b2OdXurokW" opacity="1" fill-opacity="0" stroke="#000000" stroke-width="1" stroke-opacity="1"></use></g></g><g><g><use xlink:href="#bG0GogEy2" opacity="1" fill-opacity="0" stroke="#000000" stroke-width="1" stroke-opacity="1"></use></g></g><g><g><use xlink:href="#aFmz2pzRF" opacity="1" fill-opacity="0" stroke="#000000" stroke-width="1" stroke-opacity="1"></use></g></g><g><g><use xlink:href="#d5FjlgjTvl" opacity="1" fill-opacity="0" stroke="#000000" stroke-width="1" stroke-opacity="1"></use></g></g><g><g><use xlink:href="#kc8Nra1DV" opacity="1" fill-opacity="0" stroke="#000000" stroke-width="1" stroke-opacity="1"></use></g></g><g><g><use xlink:href="#b1DyHDYFrL" opacity="1" fill-opacity="0" stroke="#000000" stroke-width="1" stroke-opacity="1"></use></g></g><g><g><use xlink:href="#cpRP2uRIm" opacity="1" fill-opacity="0" stroke="#000000" stroke-width="1" stroke-opacity="1"></use></g></g><g><g><use xlink:href="#agb5dORjN" opacity="1" fill-opacity="0" stroke="#000000" stroke-width="1" stroke-opacity="1"></use></g></g><g><g><use xlink:href="#a4QbXnROhR" opacity="1" fill-opacity="0" stroke="#000000" stroke-width="1" stroke-opacity="1"></use></g></g><g><g><use xlink:href="#d2CTiOvXQ0" opacity="1" fill-opacity="0" stroke="#000000" stroke-width="1" stroke-opacity="1"></use></g></g><g><g><use xlink:href="#l8smJCXIy" opacity="1" fill-opacity="0" stroke="#000000" stroke-width="1" stroke-opacity="1"></use></g></g><g><g><use xlink:href="#c46gR8a6nI" opacity="1" fill-opacity="0" stroke="#000000" stroke-width="1" stroke-opacity="1"></use></g></g><g><g><use xlink:href="#h1O75cQLVd" opacity="1" fill-opacity="0" stroke="#000000" stroke-width="1" stroke-opacity="1"></use></g></g><g><g><use xlink:href="#k26X5gU2G" opacity="1" fill-opacity="0" stroke="#000000" stroke-width="1" stroke-opacity="1"></use></g></g><g><g><use xlink:href="#b3v1fBHiaM" opacity="1" fill-opacity="0" stroke="#000000" stroke-width="1" stroke-opacity="1"></use></g></g><g><g><use xlink:href="#aDvyNE6Z" opacity="1" fill-opacity="0" stroke="#000000" stroke-width="1" stroke-opacity="1"></use></g></g><g><g><use xlink:href="#av6fadADL" opacity="1" fill-opacity="0" stroke="#000000" stroke-width="1" stroke-opacity="1"></use></g></g><g><g><use xlink:href="#b1dsRe6ddC" opacity="1" fill-opacity="0" stroke="#000000" stroke-width="1" stroke-opacity="1"></use></g></g><g><g><use xlink:href="#bMyDUmu8h" opacity="1" fill-opacity="0" stroke="#000000" stroke-width="1" stroke-opacity="1"></use></g></g><g><g><use xlink:href="#c1yKLJ7kOL" opacity="1" fill-opacity="0" stroke="#000000" stroke-width="1" stroke-opacity="1"></use></g></g><g><g><use xlink:href="#asDGGv4jc" opacity="1" fill-opacity="0" stroke="#000000" stroke-width="1" stroke-opacity="1"></use></g></g><g><g><use xlink:href="#b4b8W46uto" opacity="1" fill-opacity="0" stroke="#000000" stroke-width="1" stroke-opacity="1"></use></g></g><g><g><use xlink:href="#a1ALCVvl64" opacity="1" fill-opacity="0" stroke="#000000" stroke-width="1" stroke-opacity="1"></use></g></g><g><g><use xlink:href="#aaQ72slxDx" opacity="1" fill-opacity="0" stroke="#000000" stroke-width="1" stroke-opacity="1"></use></g></g><g><g><use xlink:href="#c3xRMYyWvP" opacity="1" fill-opacity="0" stroke="#000000" stroke-width="1" stroke-opacity="1"></use></g></g><g><g><use xlink:href="#bu2eeaJ5k" opacity="1" fill-opacity="0" stroke="#000000" stroke-width="1" stroke-opacity="1"></use></g></g><g><g><use xlink:href="#d2woXagZms" opacity="1" fill-opacity="0" stroke="#000000" stroke-width="1" stroke-opacity="1"></use></g></g><g><g><use xlink:href="#a1iRQxQiRC" opacity="1" fill-opacity="0" stroke="#000000" stroke-width="1" stroke-opacity="1"></use></g></g><g><g><use xlink:href="#b1aHgALD4c" opacity="1" fill-opacity="0" stroke="#000000" stroke-width="1" stroke-opacity="1"></use></g></g><g><g><use xlink:href="#bqdmjNXIu" opacity="1" fill-opacity="0" stroke="#000000" stroke-width="1" stroke-opacity="1"></use></g></g><g><g><use xlink:href="#g1cUEW67YP" opacity="1" fill-opacity="0" stroke="#000000" stroke-width="1" stroke-opacity="1"></use></g></g><g><g><use xlink:href="#bzUIAron" opacity="1" fill-opacity="0" stroke="#000000" stroke-width="1" stroke-opacity="1"></use></g></g><g><g><use xlink:href="#c1464a2iE" opacity="1" fill-opacity="0" stroke="#000000" stroke-width="1" stroke-opacity="1"></use></g></g><g><g><use xlink:href="#g1Ftbokt6r" opacity="1" fill-opacity="0" stroke="#000000" stroke-width="1" stroke-opacity="1"></use></g></g><g><g><use xlink:href="#a80vcrDs9g" opacity="1" fill-opacity="0" stroke="#000000" stroke-width="1" stroke-opacity="1"></use></g></g><g><g><use xlink:href="#e14Ij2XqQ" opacity="1" fill-opacity="0" stroke="#000000" stroke-width="5" stroke-opacity="1"></use></g></g><g><g><use xlink:href="#bQ5jHp9Da" opacity="1" fill-opacity="0" stroke="#000000" stroke-width="1" stroke-opacity="1"></use></g></g><g><g><use xlink:href="#bnIQn0iS3" opacity="1" fill-opacity="0" stroke="#000000" stroke-width="1" stroke-opacity="1"></use></g></g><g><g><use xlink:href="#a15wtRoqbL" opacity="1" fill-opacity="0" stroke="#000000" stroke-width="1" stroke-opacity="1"></use></g></g><g><g><use xlink:href="#a302sdB5ga" opacity="1" fill-opacity="0" stroke="#000000" stroke-width="1" stroke-opacity="1"></use></g></g><g><g><use xlink:href="#a17J1NV18u" opacity="1" fill-opacity="0" stroke="#000000" stroke-width="1" stroke-opacity="1"></use></g></g><g><g><use xlink:href="#b1k1Be5IK1" opacity="1" fill-opacity="0" stroke="#000000" stroke-width="1" stroke-opacity="1"></use></g></g><g><g><use xlink:href="#c20isgq4zP" opacity="1" fill-opacity="0" stroke="#000000" stroke-width="1" stroke-opacity="1"></use></g></g><g><g><use xlink:href="#btb7qnpM0" opacity="1" fill-opacity="0" stroke="#000000" stroke-width="1" stroke-opacity="1"></use></g></g><g><g><use xlink:href="#b191AiKeV1" opacity="1" fill-opacity="0" stroke="#000000" stroke-width="1" stroke-opacity="1"></use></g></g><g><g><use xlink:href="#a6cqYfjTRE" opacity="1" fill-opacity="0" stroke="#000000" stroke-width="1" stroke-opacity="1"></use></g></g><g><g><use xlink:href="#a1JIShGt7S" opacity="1" fill-opacity="0" stroke="#000000" stroke-width="1" stroke-opacity="1"></use></g></g><g><g><use xlink:href="#a5cwyikDNT" opacity="1" fill-opacity="0" stroke="#000000" stroke-width="1" stroke-opacity="1"></use></g></g><g><g><use xlink:href="#cP5U7F5vx" opacity="1" fill-opacity="0" stroke="#000000" stroke-width="1" stroke-opacity="1"></use></g></g><g><g><use xlink:href="#f5jN0GXzNv" opacity="1" fill-opacity="0" stroke="#000000" stroke-width="1" stroke-opacity="1"></use></g></g><g><g><use xlink:href="#e4X7DwlDqX" opacity="1" fill-opacity="0" stroke="#000000" stroke-width="1" stroke-opacity="1"></use></g></g><g><g><use xlink:href="#d1xG6IEEfs" opacity="1" fill-opacity="0" stroke="#000000" stroke-width="1" stroke-opacity="1"></use></g></g><g><g><use xlink:href="#a1iPNHn3I6" opacity="1" fill-opacity="0" stroke="#000000" stroke-width="1" stroke-opacity="1"></use></g></g><g><g><use xlink:href="#bf4ahFEzG" opacity="1" fill-opacity="0" stroke="#000000" stroke-width="5" stroke-opacity="1"></use></g></g><g><g><use xlink:href="#i1GBmd5RgR" opacity="1" fill-opacity="0" stroke="#000000" stroke-width="5" stroke-opacity="1"></use></g></g><g><g><use xlink:href="#a6BRfKQqMt" opacity="1" fill-opacity="0" stroke="#000000" stroke-width="5" stroke-opacity="1"></use></g></g><g><g><use xlink:href="#i2KfjUZgR" opacity="1" fill-opacity="0" stroke="#000000" stroke-width="5" stroke-opacity="1"></use></g></g><g><g><use xlink:href="#b9c8DrLby" opacity="1" fill-opacity="0" stroke="#000000" stroke-width="3" stroke-opacity="1"></use></g></g><g><g><use xlink:href="#h3udr48fGX" opacity="1" fill-opacity="0" stroke="#000000" stroke-width="5" stroke-opacity="1"></use></g></g><g><g><use xlink:href="#g2JoT6jMhq" opacity="1" fill-opacity="0" stroke="#000000" stroke-width="5" stroke-opacity="1"></use></g></g><g><g><use xlink:href="#c6XoZvucU" opacity="1" fill-opacity="0" stroke="#000000" stroke-width="5" stroke-opacity="1"></use></g></g><g><g><use xlink:href="#c1nvUwNZ3k" opacity="1" fill-opacity="0" stroke="#000000" stroke-width="3" stroke-opacity="1"></use></g></g><g><g><use xlink:href="#c1iTySTh3e" opacity="1" fill-opacity="0" stroke="#000000" stroke-width="5" stroke-opacity="1"></use></g></g><g><g><use xlink:href="#fK8wXLXIF" opacity="1" fill-opacity="0" stroke="#000000" stroke-width="5" stroke-opacity="1"></use></g></g><g><g><use xlink:href="#b8Dvjy4UI" opacity="1" fill-opacity="0" stroke="#000000" stroke-width="5" stroke-opacity="1"></use></g></g><g><g><use xlink:href="#a9oNtmKBx" opacity="1" fill-opacity="0" stroke="#000000" stroke-width="3" stroke-opacity="1"></use></g></g><g><g><use xlink:href="#a2Qu91Oj0" opacity="1" fill-opacity="0" stroke="#000000" stroke-width="5" stroke-opacity="1"></use></g></g><g><g><use xlink:href="#fiyqAvsfs" opacity="1" fill-opacity="0" stroke="#000000" stroke-width="5" stroke-opacity="1"></use></g></g><g><g><use xlink:href="#bGILhmodm" opacity="1" fill-opacity="0" stroke="#000000" stroke-width="5" stroke-opacity="1"></use></g></g><g><g><use xlink:href="#dyfXmW7g" opacity="1" fill-opacity="0" stroke="#000000" stroke-width="5" stroke-opacity="1"></use></g></g><g><g><use xlink:href="#aHzGzgusP" opacity="1" fill-opacity="0" stroke="#000000" stroke-width="5" stroke-opacity="1"></use></g></g><g><g><use xlink:href="#i5RZvVUvZq" opacity="1" fill-opacity="0" stroke="#000000" stroke-width="5" stroke-opacity="1"></use></g></g><g><g><use xlink:href="#bhXsyzQt4" opacity="1" fill-opacity="0" stroke="#000000" stroke-width="5" stroke-opacity="1"></use></g></g></g></g></svg>